<svg xmlns="http://www.w3.org/2000/svg" width="800" height="600" viewBox="0 0 800 600">
  <!-- Background gradient -->
  <defs>
    <linearGradient id="bg3" x1="0%" y1="0%" x2="100%" y2="100%">
      <stop offset="0%" style="stop-color:#00c6ff;stop-opacity:1" />
      <stop offset="100%" style="stop-color:#0072ff;stop-opacity:1" />
    </linearGradient>
  </defs>
  <rect width="800" height="600" fill="url(#bg3)"/>

  <!-- Vintage mustache -->
  <g transform="translate(400, 280) scale(4)">
    <path d="M -80 0 Q -90 -8, -95 -10 Q -100 -11, -102 -8 Q -103 -5, -98 -3 Q -85 0, -70 2 Q -50 3, -30 2 Q -10 1, 0 0 Z"
          fill="#1F1410" stroke="#0F0A08" stroke-width="1.5"/>
    <path d="M 80 0 Q 90 -8, 95 -10 Q 100 -11, 102 -8 Q 103 -5, 98 -3 Q 85 0, 70 2 Q 50 3, 30 2 Q 10 1, 0 0 Z"
          fill="#1F1410" stroke="#0F0A08" stroke-width="1.5"/>
  </g>

  <!-- Decorative circles -->
  <circle cx="150" cy="100" r="40" fill="white" opacity="0.2"/>
  <circle cx="650" cy="500" r="60" fill="white" opacity="0.15"/>
  <circle cx="700" cy="150" r="30" fill="white" opacity="0.25"/>

  <!-- Decorative text -->
  <text x="400" y="520" font-family="Arial, sans-serif" font-size="40" font-weight="bold"
        text-anchor="middle" fill="white" opacity="0.8">Classic Style</text>
</svg>
