<svg xmlns="http://www.w3.org/2000/svg" width="400" height="400" viewBox="0 0 400 400">
  <!-- Background circle -->
  <circle cx="200" cy="200" r="200" fill="#9B59B6"/>

  <!-- Mustache - Pencil style (thin) -->
  <g transform="translate(200, 215)">
    <!-- Left side -->
    <path d="M -80 0 Q -90 -8, -95 -10 Q -100 -11, -102 -8 Q -103 -5, -98 -3 Q -85 0, -70 2 Q -50 3, -30 2 Q -10 1, 0 0 Z"
          fill="#1F1410" stroke="#0F0A08" stroke-width="1.5"/>

    <!-- Right side -->
    <path d="M 80 0 Q 90 -8, 95 -10 Q 100 -11, 102 -8 Q 103 -5, 98 -3 Q 85 0, 70 2 Q 50 3, 30 2 Q 10 1, 0 0 Z"
          fill="#1F1410" stroke="#0F0A08" stroke-width="1.5"/>
  </g>

  <!-- Text -->
  <text x="200" y="350" font-family="Arial, sans-serif" font-size="24" font-weight="bold"
        text-anchor="middle" fill="white">Emma</text>
</svg>
